<svg width="79" height="22" viewBox="0 0 79 22" fill="none" xmlns="http://www.w3.org/2000/svg">
<path d="M-0.000196829 21.5996V-0.000391483H13.1998V4.07961H4.0798V8.75961H11.3998V12.8396H4.0798V21.5996H-0.000196829ZM14.408 21.5996V-0.000391483H18.488V17.7896H27.788V21.5996H14.408ZM30.8302 21.5996V12.8096L23.4502 -0.000391483H28.2202L32.9002 8.12961L37.5802 -0.000391483H42.3502L34.9702 12.8096V21.5996H30.8302ZM42.6467 21.5996V-0.000391483H46.7867L56.1767 14.3996V-0.000391483H60.3167V21.5996H56.1767L46.7867 7.19961V21.5996H42.6467ZM67.7121 21.5996V3.80961H60.9021V-0.000391483H78.6021V3.80961H71.7921V21.5996H67.7121Z" fill="black"/>
</svg>