<svg width="118" height="27" viewBox="0 0 118 27" fill="none" xmlns="http://www.w3.org/2000/svg">
<path d="M38.5936 27V5.4H51.7936V9.48H42.6736V14.16H49.9936V18.24H42.6736V27H38.5936ZM53.0018 27V5.4H57.0818V23.19H66.3818V27H53.0018ZM69.4239 27V18.21L62.0439 5.4H66.8139L71.4939 13.53L76.1739 5.4H80.9439L73.5639 18.21V27H69.4239ZM81.2404 27V5.4H85.3804L94.7704 19.8V5.4H98.9104V27H94.7704L85.3804 12.6V27H81.2404ZM106.306 27V9.21H99.4959V5.4H117.196V9.21H110.386V27H106.306Z" fill="black"/>
<ellipse cx="13.5" cy="13.5" rx="13.5" ry="13.5" transform="rotate(-90 13.5 13.5)" fill="#8B5CF6"/>
<rect x="13" y="27" width="14" height="14" transform="rotate(-90 13 27)" fill="#8B5CF6"/>
</svg>
