<svg xmlns="http://www.w3.org/2000/svg" xmlns:xlink="http://www.w3.org/1999/xlink" width="1920" zoomAndPan="magnify" viewBox="0 0 1440 809.999993" height="1080" preserveAspectRatio="xMidYMid meet" version="1.0"><defs><clipPath id="58f9321508"><path d="M 464 271 L 1002.761719 271 L 1002.761719 682 L 464 682 Z M 464 271 " clip-rule="nonzero"/></clipPath><clipPath id="1d9b89e9c5"><path d="M 437.261719 116.492188 L 798 116.492188 L 798 657 L 437.261719 657 Z M 437.261719 116.492188 " clip-rule="nonzero"/></clipPath></defs><g clip-path="url(#58f9321508)"><path fill="#000000" d="M 953.140625 405.273438 C 920.316406 474.011719 866.410156 539.097656 794.507812 590.203125 C 689.191406 665.003906 568.292969 693.527344 465.503906 677.125 C 465.199219 677.074219 464.976562 676.804688 464.984375 676.496094 C 464.996094 676.1875 465.230469 675.929688 465.539062 675.898438 C 540.851562 667.597656 614.917969 641.601562 691.722656 587.039062 C 762.796875 536.539062 841.839844 443.472656 878.417969 366.164062 L 828.5625 340.121094 C 828.355469 340.011719 828.226562 339.796875 828.226562 339.5625 C 828.230469 339.328125 828.367188 339.117188 828.574219 339.015625 L 966.953125 271.109375 C 967.121094 271.023438 967.320312 271.023438 967.492188 271.105469 C 967.664062 271.1875 967.789062 271.34375 967.828125 271.53125 L 1002.410156 429.894531 C 1002.460938 430.128906 1002.371094 430.375 1002.179688 430.519531 C 1001.988281 430.664062 1001.730469 430.6875 1001.515625 430.574219 Z M 953.140625 405.273438 " fill-opacity="1" fill-rule="evenodd"/></g><g clip-path="url(#1d9b89e9c5)"><path fill="#26153e" d="M 470.222656 656.378906 L 470.222656 491.550781 C 470.222656 489.988281 470.84375 488.492188 471.945312 487.386719 C 473.050781 486.285156 474.546875 485.664062 476.109375 485.664062 L 550.394531 485.664062 C 551.957031 485.664062 553.453125 486.285156 554.558594 487.386719 C 555.660156 488.492188 556.28125 489.988281 556.28125 491.550781 L 556.28125 636.648438 C 527.605469 646.417969 499.003906 652.777344 470.222656 656.378906 Z M 590.988281 623.136719 L 590.988281 404.933594 C 590.988281 403.375 591.609375 401.875 592.714844 400.773438 C 593.816406 399.667969 595.316406 399.046875 596.875 399.046875 L 671.160156 399.046875 C 672.722656 399.046875 674.21875 399.667969 675.324219 400.773438 C 676.429688 401.875 677.046875 403.375 677.046875 404.933594 L 677.046875 574.335938 C 648.039062 594.605469 619.429688 610.664062 590.988281 623.136719 Z M 711.757812 547.414062 L 711.757812 303.515625 C 711.757812 301.953125 712.375 300.457031 713.480469 299.355469 C 714.585938 298.25 716.082031 297.628906 717.644531 297.628906 L 791.929688 297.628906 C 793.488281 297.628906 794.984375 298.25 796.089844 299.355469 C 797.195312 300.457031 797.816406 301.953125 797.816406 303.515625 L 797.816406 457.289062 C 771.570312 490.382812 741.621094 521.886719 711.757812 547.414062 Z M 557.3125 355.964844 C 491.363281 355.964844 437.574219 302.171875 437.574219 236.226562 C 437.574219 170.28125 491.363281 116.492188 557.3125 116.492188 C 623.257812 116.492188 677.046875 170.28125 677.046875 236.226562 C 677.046875 302.171875 623.257812 355.964844 557.3125 355.964844 Z M 547.890625 168.910156 C 544.804688 169.496094 541.800781 170.359375 538.9375 171.484375 C 523.679688 177.488281 512.628906 190.621094 513.511719 208.519531 C 514.625 232.09375 536.035156 241.84375 555.917969 245.082031 C 561.714844 246.039062 567.921875 247.421875 573.394531 249.90625 C 579.777344 252.804688 585.183594 257.316406 586.152344 265.386719 L 586.152344 265.394531 C 586.945312 271.921875 583.933594 276.578125 579.445312 279.671875 C 573.628906 283.683594 565.746094 285.480469 558.65625 285.640625 L 558.636719 285.640625 C 545.230469 285.972656 531.472656 279.894531 528.058594 266.1875 C 526.804688 261.140625 521.6875 258.066406 516.644531 259.320312 C 511.597656 260.578125 508.523438 265.691406 509.777344 270.734375 C 514.445312 289.480469 530.082031 300.707031 547.890625 303.6875 L 547.890625 312.011719 C 547.890625 317.210938 552.113281 321.429688 557.3125 321.429688 C 562.511719 321.429688 566.730469 317.210938 566.730469 312.011719 L 566.730469 303.824219 C 587.339844 300.789062 607.785156 287.34375 604.855469 263.132812 C 601.9375 238.878906 579.363281 229.851562 558.960938 226.492188 L 558.945312 226.492188 C 553.546875 225.613281 547.828125 224.246094 542.878906 221.832031 C 537.277344 219.09375 532.667969 214.878906 532.324219 207.628906 L 532.324219 207.605469 C 531.871094 198.445312 538.027344 192.085938 545.832031 189.015625 C 558.90625 183.871094 577.082031 187.269531 583.898438 203.519531 C 585.910156 208.3125 591.4375 210.570312 596.230469 208.558594 C 601.023438 206.546875 603.28125 201.023438 601.269531 196.230469 C 594.5 180.097656 581.054688 171.347656 566.730469 168.796875 L 566.730469 160.480469 C 566.730469 155.285156 562.511719 151.0625 557.3125 151.0625 C 552.113281 151.0625 547.890625 155.285156 547.890625 160.480469 Z M 547.890625 168.910156 " fill-opacity="1" fill-rule="evenodd"/></g></svg>